<?xml version="1.0" standalone="no"?>
<!DOCTYPE svg PUBLIC "-//W3C//DTD SVG 20010904//EN"
 "http://www.w3.org/TR/2001/REC-SVG-20010904/DTD/svg10.dtd">
<svg version="1.0" xmlns="http://www.w3.org/2000/svg"
 width="1252.000000pt" height="1252.000000pt" viewBox="0 0 1252.000000 1252.000000"
 preserveAspectRatio="xMidYMid meet">
<metadata>
Created by potrace 1.11, written by Peter Selinger 2001-2013
</metadata>
<g transform="translate(0.000000,1252.000000) scale(0.100000,-0.100000)"
fill="#000000" stroke="none">
<path d="M2715 12505 c-78 -39 -126 -138 -105 -216 12 -43 846 -1478 883
-1518 65 -71 181 -78 259 -16 14 11 248 353 520 760 384 573 497 749 502 781
14 83 -37 180 -111 210 -26 12 -206 14 -975 14 -820 0 -947 -2 -973 -15z"/>
<path d="M5522 11854 c-135 -36 -221 -149 -221 -289 0 -33 46 -499 103 -1035
56 -536 102 -976 102 -976 -1 -1 -201 -4 -446 -8 -245 -3 -548 -8 -675 -11
-126 -3 -403 -7 -615 -10 -212 -3 -504 -7 -650 -10 -146 -3 -420 -7 -610 -10
-786 -12 -1007 -17 -1040 -26 -87 -22 -170 -103 -201 -196 -6 -19 -9 -65 -7
-101 3 -62 10 -80 94 -237 50 -93 102 -190 116 -215 14 -25 44 -81 68 -125 24
-44 55 -102 70 -130 15 -27 74 -135 130 -240 56 -104 115 -212 130 -240 15
-27 238 -439 495 -915 422 -780 874 -1617 960 -1775 18 -33 61 -114 97 -180
36 -66 81 -149 100 -185 19 -36 95 -175 168 -310 73 -135 207 -382 297 -550
91 -168 194 -357 228 -420 35 -63 285 -527 558 -1030 272 -503 572 -1059 667
-1235 96 -176 192 -354 214 -396 449 -833 473 -875 516 -920 54 -55 118 -79
205 -79 82 0 173 44 217 104 16 22 419 819 895 1771 476 952 1067 2130 1313
2620 246 490 885 1765 1421 2835 l973 1945 0 70 c1 120 -61 219 -168 267 -51
23 -53 23 -388 19 -186 -2 -338 -1 -338 3 0 5 322 628 425 821 130 245 503
965 517 1000 10 24 17 68 17 111 1 60 -4 80 -30 132 -32 66 -86 117 -154 148
-39 18 -135 19 -2770 21 -2345 2 -2737 0 -2783 -13z"/>
</g>
</svg>
